<?xml version="1.0" encoding="UTF-8" standalone="no"?>
<!-- Generator: Adobe Illustrator 16.0.0, SVG Export Plug-In . SVG Version: 6.00 Build 0)  -->

<svg
   version="1.1"
   id="Capa_1"
   x="0px"
   y="0px"
   width="45.532px"
   height="45.532px"
   viewBox="0 0 45.532 45.532"
   style="enable-background:new 0 0 45.532 45.532;"
   xml:space="preserve"
   sodipodi:docname="user.svg"
   inkscape:version="1.1.1 (3bf5ae0d25, 2021-09-20)"
   xmlns:inkscape="http://www.inkscape.org/namespaces/inkscape"
   xmlns:sodipodi="http://sodipodi.sourceforge.net/DTD/sodipodi-0.dtd"
   xmlns="http://www.w3.org/2000/svg"
   xmlns:svg="http://www.w3.org/2000/svg"><defs
   id="defs39" /><sodipodi:namedview
   id="namedview37"
   pagecolor="#ffffff"
   bordercolor="#666666"
   borderopacity="1.0"
   inkscape:pageshadow="2"
   inkscape:pageopacity="0.0"
   inkscape:pagecheckerboard="0"
   showgrid="false"
   inkscape:zoom="17.613985"
   inkscape:cx="22.737614"
   inkscape:cy="22.737614"
   inkscape:window-width="1920"
   inkscape:window-height="991"
   inkscape:window-x="-9"
   inkscape:window-y="-9"
   inkscape:window-maximized="1"
   inkscape:current-layer="Capa_1" />
<g
   id="g4"
   style="fill:#5667bd;fill-opacity:1">
	<path
   d="M22.766,0.001C10.194,0.001,0,10.193,0,22.766s10.193,22.765,22.766,22.765c12.574,0,22.766-10.192,22.766-22.765   S35.34,0.001,22.766,0.001z M22.766,6.808c4.16,0,7.531,3.372,7.531,7.53c0,4.159-3.371,7.53-7.531,7.53   c-4.158,0-7.529-3.371-7.529-7.53C15.237,10.18,18.608,6.808,22.766,6.808z M22.761,39.579c-4.149,0-7.949-1.511-10.88-4.012   c-0.714-0.609-1.126-1.502-1.126-2.439c0-4.217,3.413-7.592,7.631-7.592h8.762c4.219,0,7.619,3.375,7.619,7.592   c0,0.938-0.41,1.829-1.125,2.438C30.712,38.068,26.911,39.579,22.761,39.579z"
   id="path2"
   style="fill:#5667bd;fill-opacity:1" />
</g>
<g
   id="g6">
</g>
<g
   id="g8">
</g>
<g
   id="g10">
</g>
<g
   id="g12">
</g>
<g
   id="g14">
</g>
<g
   id="g16">
</g>
<g
   id="g18">
</g>
<g
   id="g20">
</g>
<g
   id="g22">
</g>
<g
   id="g24">
</g>
<g
   id="g26">
</g>
<g
   id="g28">
</g>
<g
   id="g30">
</g>
<g
   id="g32">
</g>
<g
   id="g34">
</g>
<path
   style="fill:#ffffff;stroke-width:0.0567731"
   d="m 21.96902,21.798104 c -2.380605,-0.269212 -4.514395,-1.676277 -5.721162,-3.772655 -1.383839,-2.403981 -1.278688,-5.479499 0.266707,-7.800864 2.648736,-3.9787113 8.167709,-4.5398247 11.534792,-1.1727412 1.458742,1.4587422 2.203409,3.2558612 2.201012,5.3117432 -0.0018,1.517186 -0.424591,2.888596 -1.295283,4.201207 -0.363108,0.547402 -1.412089,1.596383 -1.959492,1.959491 -1.503964,0.997623 -3.344477,1.464039 -5.026574,1.273819 z"
   id="path893" /><path
   style="fill:#ffffff;stroke-width:0.0567731"
   d="m 21.934003,21.796878 c -3.119299,-0.385753 -5.66938,-2.621343 -6.435616,-5.641935 -0.666306,-2.626653 0.165748,-5.426787 2.168263,-7.2969144 2.528611,-2.3614439 6.347904,-2.6796158 9.21933,-0.7680301 3.637903,2.4218505 4.465693,7.2869295 1.835986,10.7904365 -1.079548,1.438261 -2.78349,2.483438 -4.614691,2.830595 -0.607076,0.115089 -1.614905,0.1549 -2.173272,0.08585 z"
   id="path932" /><path
   style="fill:#ffffff;stroke-width:0.0567731"
   d="m 21.886018,39.531764 c -0.616395,-0.02871 -1.806397,-0.188251 -2.519696,-0.337814 -2.399886,-0.503203 -4.774754,-1.581037 -6.681106,-3.032219 -0.951098,-0.724009 -1.292452,-1.08522 -1.571893,-1.663332 -0.244398,-0.505615 -0.3207,-0.892275 -0.309864,-1.570241 0.03061,-1.915115 0.803565,-3.711292 2.202002,-5.116967 1.106193,-1.111918 2.412063,-1.802847 4.028519,-2.131466 0.470529,-0.09566 0.902709,-0.103457 5.732021,-0.103457 4.829312,0 5.261492,0.0078 5.73202,0.103457 1.109132,0.225482 2.200575,0.681829 3.026933,1.265602 0.500636,0.353669 1.309433,1.14182 1.682871,1.639913 0.946948,1.263041 1.432057,2.610489 1.492083,4.144434 0.0354,0.904745 -0.02719,1.257172 -0.329995,1.85788 -0.448351,0.889457 -2.266272,2.270468 -4.280186,3.251509 -2.047711,0.997504 -3.960004,1.507168 -6.273424,1.671992 -0.785825,0.05599 -1.100361,0.05936 -1.930285,0.02071 z"
   id="path971" /></svg>
