<?xml version="1.0" encoding="UTF-8" standalone="no"?>
<!-- Generator: Adobe Illustrator 19.0.0, SVG Export Plug-In . SVG Version: 6.00 Build 0)  -->

<svg
   version="1.1"
   id="Layer_1"
   x="0px"
   y="0px"
   viewBox="0 0 511.76 511.76"
   style="enable-background:new 0 0 511.76 511.76;"
   xml:space="preserve"
   sodipodi:docname="help-question-svgrepo-com.svg"
   inkscape:version="1.1.1 (3bf5ae0d25, 2021-09-20)"
   xmlns:inkscape="http://www.inkscape.org/namespaces/inkscape"
   xmlns:sodipodi="http://sodipodi.sourceforge.net/DTD/sodipodi-0.dtd"
   xmlns="http://www.w3.org/2000/svg"
   xmlns:svg="http://www.w3.org/2000/svg"><defs
   id="defs41" /><sodipodi:namedview
   id="namedview39"
   pagecolor="#ffffff"
   bordercolor="#666666"
   borderopacity="1.0"
   inkscape:pageshadow="2"
   inkscape:pageopacity="0.0"
   inkscape:pagecheckerboard="0"
   showgrid="false"
   inkscape:zoom="1.5671408"
   inkscape:cx="256.19906"
   inkscape:cy="256.19906"
   inkscape:window-width="1920"
   inkscape:window-height="991"
   inkscape:window-x="-9"
   inkscape:window-y="-9"
   inkscape:window-maximized="1"
   inkscape:current-layer="Layer_1" />
<g
   id="g6"
   style="fill:#1e3190;fill-opacity:1">
	<g
   id="g4"
   style="fill:#1e3190;fill-opacity:1">
		<path
   d="M436.912,74.869c-99.84-99.819-262.208-99.819-362.048,0c-99.819,99.797-99.819,262.229,0,362.027    c49.92,49.92,115.456,74.859,181.013,74.859c65.579,0,131.115-24.939,181.035-74.859    C536.709,337.099,536.709,174.667,436.912,74.869z M255.877,426.549c-11.776,0-21.333-9.557-21.333-21.333    s9.557-21.333,21.333-21.333c11.797,0,21.333,9.557,21.333,21.333S267.675,426.549,255.877,426.549z M297.051,245.323    c-12.053,6.635-19.84,21.312-19.84,37.376v37.184c0,11.776-9.536,21.333-21.333,21.333c-11.776,0-21.333-9.557-21.333-21.333    v-37.184c0-31.872,16.064-60.501,41.899-74.731c16.277-8.981,24.661-26.773,21.397-45.312    c-2.944-16.811-17.259-31.125-34.048-34.069c-12.992-2.261-25.515,1.003-35.328,9.259c-9.685,8.149-15.253,20.075-15.253,32.704    c0,11.776-9.536,21.333-21.333,21.333c-11.776,0-21.333-9.557-21.333-21.333c0-25.28,11.115-49.109,30.485-65.365    c19.349-16.256,44.864-23.04,70.144-18.624c34.411,6.037,62.677,34.304,68.715,68.693    C346.245,191.499,329.029,227.68,297.051,245.323z"
   id="path2"
   style="fill:#1e3190;fill-opacity:1" />
	</g>
</g>
<g
   id="g8">
</g>
<g
   id="g10">
</g>
<g
   id="g12">
</g>
<g
   id="g14">
</g>
<g
   id="g16">
</g>
<g
   id="g18">
</g>
<g
   id="g20">
</g>
<g
   id="g22">
</g>
<g
   id="g24">
</g>
<g
   id="g26">
</g>
<g
   id="g28">
</g>
<g
   id="g30">
</g>
<g
   id="g32">
</g>
<g
   id="g34">
</g>
<g
   id="g36">
</g>
</svg>
